<svg xmlns="http://www.w3.org/2000/svg" width="30.588" height="26" viewBox="0 0 30.588 26">
  <g id="Group_10319" data-name="Group 10319" transform="translate(-4 -7)">
    <path id="Path_5476" data-name="Path 5476" d="M31.529,33.941H7.059A3.059,3.059,0,0,1,4,30.882V14.059A3.059,3.059,0,0,1,7.059,11H31.529a3.059,3.059,0,0,1,3.059,3.059V30.882A3.059,3.059,0,0,1,31.529,33.941Z" transform="translate(0 -0.941)" fill="#fff"/>
    <path id="Path_5477" data-name="Path 5477" d="M29.824,12.353H13l2.178-3.812A3.059,3.059,0,0,1,17.834,7h7.155a3.059,3.059,0,0,1,2.656,1.541Z" transform="translate(-2.118 0)" fill="#fff"/>
    <path id="Path_5478" data-name="Path 5478" d="M35.118,25.745H29l3.059-4.078Z" transform="translate(-5.882 -3.451)"/>
    <path id="Path_5479" data-name="Path 5479" d="M11,25h6.118l-3.059,4.078Z" transform="translate(-1.647 -4.235)"/>
    <path id="Path_5480" data-name="Path 5480" d="M26.693,17.939A7.563,7.563,0,0,0,21.647,16,7.656,7.656,0,0,0,14,23.647c0,.236.015.47.035.7h1.537a6.254,6.254,0,0,1-.043-.7,6.125,6.125,0,0,1,6.118-6.118,6.056,6.056,0,0,1,4.128,1.633Zm2.563,4.943H27.711a6.01,6.01,0,0,1,.054.765,6.125,6.125,0,0,1-6.118,6.118,6.056,6.056,0,0,1-4.128-1.633L16.6,29.353a7.558,7.558,0,0,0,5.045,1.941,7.641,7.641,0,0,0,7.608-8.412Z" transform="translate(-2.353 -2.118)"/>
  </g>
</svg>
