<svg xmlns="http://www.w3.org/2000/svg" width="21.4" height="22.762" viewBox="0 0 21.4 22.762">
  <path id="Path_5404" data-name="Path 5404" d="M11.2,23.367a.648.648,0,0,0-.917,0l-.838.838-.838-.838a.648.648,0,1,0-.917.917l.838.838-.838.838a.648.648,0,1,0,.917.917l.838-.838.838.838a.648.648,0,1,0,.917-.917l-.838-.838.838-.838a.648.648,0,0,0,0-.917Zm5.836,0a.648.648,0,0,0-.917,0l-.838.838-.838-.838a.648.648,0,1,0-.917.917l.838.838-.838.838a.648.648,0,1,0,.917.917l.838-.838.838.838a.648.648,0,1,0,.917-.917l-.838-.838.838-.838A.648.648,0,0,0,17.037,23.367Zm5.836,0a.648.648,0,0,0-.917,0l-.838.838-.838-.838a.648.648,0,1,0-.917.917l.838.838-.838.838a.648.648,0,1,0,.917.917l.838-.838.838.838a.648.648,0,1,0,.917-.917l-.838-.838.838-.838A.648.648,0,0,0,22.874,23.367Zm5,1.755.838-.838a.648.648,0,1,0-.917-.917l-.838.838-.838-.838a.648.648,0,1,0-.917.917l.838.838-.838.838a.648.648,0,1,0,.917.917l.838-.838.838.838a.648.648,0,1,0,.917-.917ZM10.742,28.365H8.148a.648.648,0,1,0,0,1.3h2.594a.648.648,0,1,0,0-1.3Zm5.836,0H13.985a.648.648,0,1,0,0,1.3h2.594a.648.648,0,1,0,0-1.3Zm5.836,0H19.821a.648.648,0,0,0,0,1.3h2.594a.648.648,0,0,0,0-1.3Zm5.836,0H25.657a.648.648,0,1,0,0,1.3h2.594a.648.648,0,0,0,0-1.3ZM23.744,12.542h-1.2v-1.3a4.345,4.345,0,1,0-8.69,0v1.3h-1.2a.642.642,0,0,0-.648.648v6.1a1.947,1.947,0,0,0,1.945,1.945h8.5a1.947,1.947,0,0,0,1.945-1.945v-6.1a.642.642,0,0,0-.648-.648Zm-8.592-1.3a3.048,3.048,0,1,1,6.1,0v1.3h-6.1Z" transform="translate(-7.5 -6.9)" fill="#5a5a5a"/>
</svg>
