<svg xmlns="http://www.w3.org/2000/svg" width="16.333" height="18.037" viewBox="0 0 16.333 18.037">
  <g id="Group_10304" data-name="Group 10304" transform="translate(0.5 0.5)">
    <line id="Line_24" data-name="Line 24" x2="15.183" transform="translate(0.079 6.307)" fill="none" stroke="#000" stroke-linecap="round" stroke-linejoin="round" stroke-width="1"/>
    <line id="Line_25" data-name="Line 25" x2="0.008" transform="translate(11.451 9.634)" fill="none" stroke="#000" stroke-linecap="round" stroke-linejoin="round" stroke-width="1"/>
    <line id="Line_26" data-name="Line 26" x2="0.008" transform="translate(7.671 9.634)" fill="none" stroke="#000" stroke-linecap="round" stroke-linejoin="round" stroke-width="1"/>
    <line id="Line_27" data-name="Line 27" x2="0.008" transform="translate(3.883 9.634)" fill="none" stroke="#000" stroke-linecap="round" stroke-linejoin="round" stroke-width="1"/>
    <line id="Line_28" data-name="Line 28" x2="0.008" transform="translate(11.451 12.945)" fill="none" stroke="#000" stroke-linecap="round" stroke-linejoin="round" stroke-width="1"/>
    <line id="Line_29" data-name="Line 29" x2="0.008" transform="translate(7.671 12.945)" fill="none" stroke="#000" stroke-linecap="round" stroke-linejoin="round" stroke-width="1"/>
    <line id="Line_30" data-name="Line 30" x2="0.008" transform="translate(3.883 12.945)" fill="none" stroke="#000" stroke-linecap="round" stroke-linejoin="round" stroke-width="1"/>
    <line id="Line_31" data-name="Line 31" y2="2.803" transform="translate(11.112)" fill="none" stroke="#000" stroke-linecap="round" stroke-linejoin="round" stroke-width="1"/>
    <line id="Line_32" data-name="Line 32" y2="2.803" transform="translate(4.23)" fill="none" stroke="#000" stroke-linecap="round" stroke-linejoin="round" stroke-width="1"/>
    <path id="Path_5452" data-name="Path 5452" d="M11.277,1.579H4.064C1.563,1.579,0,2.973,0,5.534v7.709a3.7,3.7,0,0,0,4.064,4.028h7.205c2.51,0,4.064-1.4,4.064-3.963V5.534C15.341,2.973,13.787,1.579,11.277,1.579Z" transform="translate(0 -0.234)" fill="none" stroke="#000" stroke-linecap="round" stroke-linejoin="round" stroke-width="1" fill-rule="evenodd"/>
  </g>
</svg>
