<svg xmlns="http://www.w3.org/2000/svg" width="26.738" height="28.224" viewBox="0 0 26.738 28.224">
  <g id="Group_10256" data-name="Group 10256" transform="translate(-6.905 -4.787)">
    <path id="Path_5410" data-name="Path 5410" d="M36.151,16.811H20.405a1.466,1.466,0,0,0-1.04.446L16.618,20a.718.718,0,0,0,0,1.04l2.748,2.748a1.467,1.467,0,0,0,1.04.446H36.151a.7.7,0,0,0,.743-.743V17.553A.7.7,0,0,0,36.151,16.811ZM11.641,33.024v.87h1.486v-.87a2.235,2.235,0,0,1-1.486,0Zm0-10.4v6.2a2.235,2.235,0,0,1,1.486,0v-6.2a2.23,2.23,0,0,1-1.486,0Zm1.486-14.6v-.87H11.641v.87a2.235,2.235,0,0,1,1.486,0Zm-.743,4.329a2.224,2.224,0,0,1-.743-.127v6.2a2.23,2.23,0,0,1,1.486,0v-6.2A2.216,2.216,0,0,1,12.384,12.354Z" transform="translate(-3.251 -1.625)" fill="#0bab0d"/>
    <path id="Path_5411" data-name="Path 5411" d="M9.876,10.6a2.23,2.23,0,1,0-.743.127A2.228,2.228,0,0,0,9.876,10.6ZM8.39,16.8a2.23,2.23,0,1,0,.743-.127A2.228,2.228,0,0,0,8.39,16.8Zm0,10.4a2.235,2.235,0,1,0,.743-.127A2.229,2.229,0,0,0,8.39,27.2Zm18.569-1.613h-9.8a1.466,1.466,0,0,0-1.04.446l-2.748,2.748a.717.717,0,0,0,0,1.04l2.748,2.748a1.467,1.467,0,0,0,1.04.446h9.8a.7.7,0,0,0,.743-.743V26.327A.7.7,0,0,0,26.959,25.584ZM16.114,11.769a1.466,1.466,0,0,0,1.04.446H27.7a.7.7,0,0,0,.743-.743V5.53a.7.7,0,0,0-.743-.743H17.154a1.466,1.466,0,0,0-1.04.446L13.367,7.981a.717.717,0,0,0,0,1.04Z" fill="#0bab0d"/>
  </g>
</svg>
