<svg xmlns="http://www.w3.org/2000/svg" width="22.241" height="18.463" viewBox="0 0 22.241 18.463">
  <g id="christmas-stars" transform="translate(2.47 -3.459)">
    <g id="Layer_3" transform="translate(0 3.459)">
      <g id="Group_10316" data-name="Group 10316">
        <path id="Path_5471" data-name="Path 5471" d="M7.265,3.459C6.262,8.908,5.449,9.721,0,10.724c5.449,1,6.262,1.816,7.265,7.265,1-5.449,1.816-6.262,7.265-7.265C9.082,9.721,8.268,8.908,7.265,3.459Z" transform="translate(0 -3.459)" fill="#fff"/>
        <path id="Path_5472" data-name="Path 5472" d="M240.976,232.9c-.638,3.465-1.155,3.983-4.62,4.62,3.465.638,3.983,1.155,4.62,4.62.638-3.465,1.155-3.983,4.62-4.62C242.131,236.879,241.614,236.361,240.976,232.9Z" transform="translate(-225.826 -223.674)" fill="#fff"/>
        <path id="Path_5473" data-name="Path 5473" d="M239.356,232.9c-.414,2.25-.75,2.586-3,3,2.25.414,2.586.75,3,3,.414-2.25.75-2.586,3-3C240.106,235.482,239.77,235.146,239.356,232.9Z" transform="translate(-238.826 -221.674)" fill="#fff"/>
      </g>
    </g>
  </g>
</svg>
