<svg id="Group_10243" data-name="Group 10243" xmlns="http://www.w3.org/2000/svg" width="20" height="20" viewBox="0 0 20 20">
  <path id="Path_5392" data-name="Path 5392" d="M0,0H20V20H0Z" fill="none"/>
  <path id="Path_5393" data-name="Path 5393" d="M16.57,11.15a6.494,6.494,0,0,0,.058-.817,6.494,6.494,0,0,0-.058-.817l1.758-1.375a.42.42,0,0,0,.1-.533L16.762,4.725a.419.419,0,0,0-.508-.183l-2.075.833a6.088,6.088,0,0,0-1.408-.817L12.453,2.35A.406.406,0,0,0,12.045,2H8.712a.406.406,0,0,0-.408.35L7.987,4.558a6.4,6.4,0,0,0-1.408.817L4.5,4.542A.406.406,0,0,0,4,4.725L2.328,7.608a.411.411,0,0,0,.1.533L4.187,9.517a6.609,6.609,0,0,0-.058.817,6.609,6.609,0,0,0,.058.817L2.428,12.525a.42.42,0,0,0-.1.533L4,15.942a.419.419,0,0,0,.508.183l2.075-.833a6.088,6.088,0,0,0,1.408.817L8.3,18.317a.406.406,0,0,0,.408.35h3.333a.406.406,0,0,0,.408-.35l.317-2.208a6.4,6.4,0,0,0,1.408-.817l2.075.833a.407.407,0,0,0,.508-.183l1.667-2.883a.42.42,0,0,0-.1-.533Zm-6.192,2.1A2.917,2.917,0,1,1,13.3,10.333,2.92,2.92,0,0,1,10.378,13.25Z" transform="translate(-0.378 -0.333)" fill="#5a5a5a"/>
</svg>
