<svg xmlns="http://www.w3.org/2000/svg" width="27.303" height="27.928" viewBox="0 0 27.303 27.928">
  <g id="google" transform="translate(-70.039 -65.171)">
    <path id="Path_1400" data-name="Path 1400" d="M269.238,234.124c3.3-3.079,4.766-8.212,3.886-13.124H260v5.426h7.478a6.174,6.174,0,0,1-2.786,4.179Z" transform="translate(-176.033 -144.404)" fill="#4285f4"/>
    <path id="Path_1401" data-name="Path 1401" d="M90,295.593a14.077,14.077,0,0,0,21.7,4.326l-4.546-3.519A8.4,8.4,0,0,1,94.619,292Z" transform="translate(-18.497 -210.198)" fill="#34a853"/>
    <path id="Path_1402" data-name="Path 1402" d="M76.122,178.945a8.36,8.36,0,0,1,0-5.352L71.5,170a14.167,14.167,0,0,0,0,12.537Z" transform="translate(0 -97.143)" fill="#fbbc02"/>
    <path id="Path_1403" data-name="Path 1403" d="M94.619,76.45c1.613-5.059,8.5-7.992,13.124-3.666l4.033-3.959A13.844,13.844,0,0,0,90,72.857Z" transform="translate(-18.497)" fill="#ea4335"/>
  </g>
</svg>
