<svg xmlns="http://www.w3.org/2000/svg" width="17.074" height="17.962" viewBox="0 0 17.074 17.962">
  <g id="invitation" transform="translate(-9.824 0)">
    <g id="Group_10031" data-name="Group 10031" transform="translate(25.231 5.288)">
      <g id="Group_10030" data-name="Group 10030">
        <path id="Path_5188" data-name="Path 5188" d="M350.825,117.05v2.241l1.423-1.057Z" transform="translate(-350.825 -117.05)" fill="#5a5a5a"/>
      </g>
    </g>
    <g id="Group_10033" data-name="Group 10033" transform="translate(16.923 0)">
      <g id="Group_10032" data-name="Group 10032">
        <path id="Path_5189" data-name="Path 5189" d="M169.229.314a1.357,1.357,0,0,0-1.73,0L166.925.8h2.887Z" transform="translate(-166.925 0)" fill="#5a5a5a"/>
      </g>
    </g>
    <g id="Group_10035" data-name="Group 10035" transform="translate(9.824 7.389)">
      <g id="Group_10034" data-name="Group 10034">
        <path id="Path_5190" data-name="Path 5190" d="M19.71,168.922a2.214,2.214,0,0,1-1.342.443,2.257,2.257,0,0,1-1.346-.443l-7.2-5.372v9.213a1.352,1.352,0,0,0,1.342,1.36h14.39a1.352,1.352,0,0,0,1.342-1.36V163.55Z" transform="translate(-9.824 -163.55)" fill="#5a5a5a"/>
      </g>
    </g>
    <g id="Group_10037" data-name="Group 10037" transform="translate(10.073 5.329)">
      <g id="Group_10036" data-name="Group 10036" transform="translate(0)">
        <path id="Path_5191" data-name="Path 5191" d="M15.325,119.093l1.378,1.026V117.95Z" transform="translate(-15.325 -117.95)" fill="#5a5a5a"/>
      </g>
    </g>
    <g id="Group_10039" data-name="Group 10039" transform="translate(12.355 1.701)">
      <g id="Group_10038" data-name="Group 10038">
        <path id="Path_5192" data-name="Path 5192" d="M65.825,37.65v6.47l5.2,3.868a1.39,1.39,0,0,0,1.631,0L77.8,44.152v-6.5Zm3.208,3.615h2.44a.452.452,0,1,1,0,.9h-2.44a.452.452,0,1,1,0-.9Zm5.6,3.163h-5.6a.452.452,0,1,1,0-.9h5.6a.452.452,0,0,1,0,.9Z" transform="translate(-65.825 -37.65)" fill="#5a5a5a"/>
      </g>
    </g>
  </g>
</svg>
