<svg xmlns="http://www.w3.org/2000/svg" width="26" height="26" viewBox="0 0 26 26">
  <g id="Group_3205" data-name="Group 3205" transform="translate(-6 -6)">
    <path id="Path_1615" data-name="Path 1615" d="M22.586,168.409a7.715,7.715,0,0,1,.018,10.9l-.018.019-3.413,3.413A7.719,7.719,0,1,1,8.258,171.821l1.884-1.884a.812.812,0,0,1,1.386.539,9.357,9.357,0,0,0,.492,2.677.817.817,0,0,1-.192.844l-.665.665a3.656,3.656,0,1,0,5.138,5.2l3.413-3.412a3.655,3.655,0,0,0,0-5.171,3.8,3.8,0,0,0-.525-.435.814.814,0,0,1-.353-.64,2.023,2.023,0,0,1,.594-1.514l1.069-1.069a.816.816,0,0,1,1.045-.088,7.746,7.746,0,0,1,1.042.873Z" transform="translate(0 -152.994)" fill="#0bab0d"/>
    <path id="Path_1616" data-name="Path 1616" d="M160.13,8.257a7.727,7.727,0,0,0-10.916,0L145.8,11.67l-.018.019a7.72,7.72,0,0,0,1.06,11.771.816.816,0,0,0,1.045-.088l1.069-1.069a2.023,2.023,0,0,0,.594-1.514.814.814,0,0,0-.353-.64,3.805,3.805,0,0,1-.525-.435,3.655,3.655,0,0,1,0-5.171l3.413-3.412a3.656,3.656,0,1,1,5.138,5.2L156.56,17a.817.817,0,0,0-.192.844,9.358,9.358,0,0,1,.492,2.677.812.812,0,0,0,1.386.539l1.884-1.884a7.727,7.727,0,0,0,0-10.916Z" transform="translate(-130.387 0)" fill="#0bab0d"/>
  </g>
</svg>
