<svg xmlns="http://www.w3.org/2000/svg" width="15.34" height="15.334" viewBox="0 0 15.34 15.334">
  <g id="_91_-_book" data-name="91 - book" transform="translate(0 0)">
    <path id="Path_5450" data-name="Path 5450" d="M7.476,23a2.792,2.792,0,0,0,1.968-.811l3.974-3.974a2.773,2.773,0,0,0,.192-3.68.415.415,0,0,0-.1-.115l-.115-.121h0a.639.639,0,0,0-.9.9h0a1.489,1.489,0,0,1,0,2.1L8.537,21.277a1.5,1.5,0,0,1-2.121,0l-.7-.7a1.5,1.5,0,0,1,0-2.121l1.744-1.751a.639.639,0,1,0-.907-.9L4.812,17.552a2.786,2.786,0,0,0,0,3.93l.7.7A2.779,2.779,0,0,0,7.476,23Z" transform="translate(-4.001 -7.661)"/>
    <path id="Path_5451" data-name="Path 5451" d="M20.712,4.812a2.786,2.786,0,0,0-3.93,0L12.808,8.786a2.773,2.773,0,0,0-.192,3.68.415.415,0,0,0,.1.115l.115.121h0a.637.637,0,0,0,.9-.9h0a1.489,1.489,0,0,1,0-2.1L17.69,5.719a1.5,1.5,0,0,1,2.121,0l.7.7a1.5,1.5,0,0,1,0,2.121l-1.744,1.751a.639.639,0,1,0,.907.9l1.751-1.744a2.786,2.786,0,0,0,0-3.93Z" transform="translate(-6.892 -4.001)"/>
  </g>
</svg>
