<svg xmlns="http://www.w3.org/2000/svg" width="13.908" height="19.334" viewBox="0 0 13.908 19.334">
  <g id="Group_10307" data-name="Group 10307" transform="translate(-10.958 -8.934)">
    <path id="Path_5457" data-name="Path 5457" d="M16.932,11.748a3.4,3.4,0,1,0,3.4,3.4,3.4,3.4,0,0,0-3.4-3.4Zm0,5.417a2.02,2.02,0,1,1,2.02-2.02,2.02,2.02,0,0,1-2.02,2.02Z" transform="translate(0.974 1.064)"/>
    <path id="Path_5458" data-name="Path 5458" d="M17.906,8.934a6.947,6.947,0,0,0-6.948,6.932c0,7.177,6.272,11.9,6.539,12.1l.413.3.413-.3c.267-.2,6.542-4.879,6.542-12.1A6.947,6.947,0,0,0,17.906,8.934Zm0,17.593c-1.349-1.152-5.572-5.193-5.572-10.661a5.57,5.57,0,1,1,11.141,0C23.477,21.366,19.257,25.382,17.906,26.527Z"/>
  </g>
</svg>
