<svg xmlns="http://www.w3.org/2000/svg" width="16.77" height="16.77" viewBox="0 0 16.77 16.77">
  <g id="magic-wand" transform="translate(0)">
    <path id="Path_5348" data-name="Path 5348" d="M368.449,4.193a2.1,2.1,0,0,0-2.1-2.1,2.1,2.1,0,0,0,2.1-2.1,2.1,2.1,0,0,0,2.1,2.1A2.1,2.1,0,0,0,368.449,4.193Z" transform="translate(-366.353)" fill="#fff"/>
    <path id="Path_5349" data-name="Path 5349" d="M398.455,183.176a1.572,1.572,0,0,0,1.572,1.572,1.572,1.572,0,0,1-3.144,0A1.572,1.572,0,0,0,398.455,183.176Z" transform="translate(-396.883 -176.887)" fill="#fff"/>
    <path id="Path_5350" data-name="Path 5350" d="M125.262,6.289a3.144,3.144,0,0,0-3.144-3.144A3.144,3.144,0,0,0,125.262,0a3.144,3.144,0,0,0,3.144,3.144,3.144,3.144,0,0,0-3.144,3.144Z" transform="translate(-115.829)" fill="#fff"/>
    <path id="Path_5351" data-name="Path 5351" d="M2.1,91.588l11.529,11.529-2.1,2.1L0,93.684Zm1.789,3.361L2.4,93.467l-.524.524,1.482,1.482Z" transform="translate(3.144 -88.444)" fill="#fff"/>
  </g>
</svg>
