<svg xmlns="http://www.w3.org/2000/svg" width="17.94" height="12.841" viewBox="0 0 17.94 12.841">
  <g id="Group_10305" data-name="Group 10305" transform="translate(-1.98 -10.58)">
    <path id="Path_5453" data-name="Path 5453" d="M17.3,23.321H4.6A2.523,2.523,0,0,1,2.08,20.8V13.2A2.523,2.523,0,0,1,4.6,10.68H17.3a2.523,2.523,0,0,1,2.52,2.52v7.6A2.523,2.523,0,0,1,17.3,23.321ZM4.6,11.569a1.63,1.63,0,0,0-1.63,1.63v7.6a1.63,1.63,0,0,0,1.63,1.63H17.3a1.63,1.63,0,0,0,1.63-1.63V13.2a1.63,1.63,0,0,0-1.63-1.63Z" stroke="#000" stroke-width="0.2"/>
    <path id="Path_5454" data-name="Path 5454" d="M11.514,22.533a2.523,2.523,0,0,1-1.521-.507L3.071,16.791a.445.445,0,1,1,.537-.709l6.922,5.241a1.645,1.645,0,0,0,1.968,0l6.922-5.241a.445.445,0,1,1,.537.709l-6.922,5.235a2.523,2.523,0,0,1-1.521.507Z" transform="translate(-0.564 -3.73)" stroke="#000" stroke-width="0.2"/>
    <path id="Path_5455" data-name="Path 5455" d="M3.113,35.483a.445.445,0,0,1-.3-.777l5.455-4.865a.445.445,0,1,1,.593.664L3.41,35.37A.433.433,0,0,1,3.113,35.483Zm16.5,0a.433.433,0,0,1-.3-.113l-5.455-4.865a.445.445,0,0,1,.593-.664l5.452,4.865a.445.445,0,0,1-.3.777Z" transform="translate(-0.413 -13.402)" stroke="#000" stroke-width="0.2"/>
  </g>
</svg>
