<svg xmlns="http://www.w3.org/2000/svg" width="24" height="24" viewBox="0 0 24 24">
  <path id="Path_1612" data-name="Path 1612" d="M30.073,9H11.927A2.932,2.932,0,0,0,9,11.927V23.055l5.429-5.678a.585.585,0,0,1,.811-.035l4.531,4,6.345-7.449a.586.586,0,0,1,.82-.07L33,18.872V11.927A2.932,2.932,0,0,0,30.073,9ZM13.1,15.439A2.341,2.341,0,1,1,15.439,13.1,2.345,2.345,0,0,1,13.1,15.439Zm13.534-.351-6.249,7.338-.108.126a.581.581,0,0,1-.831.059l-.02-.018-4.534-4-5.5,5.751-.386.4v5.327A2.932,2.932,0,0,0,11.927,33H30.073A2.932,2.932,0,0,0,33,30.073V20.4l-.17-.143ZM21.878,30.659H11.927a.585.585,0,1,1,0-1.171h9.951a.585.585,0,1,1,0,1.171ZM11.341,27.732a.587.587,0,0,1,.585-.585h8.2a.585.585,0,1,1,0,1.171h-8.2A.587.587,0,0,1,11.341,27.732Zm12.293-1.756H11.927a.585.585,0,1,1,0-1.171H23.634a.585.585,0,0,1,0,1.171ZM14.268,13.1A1.171,1.171,0,1,1,13.1,11.927,1.17,1.17,0,0,1,14.268,13.1Z" transform="translate(-9 -9)" fill="#0bab0d"/>
</svg>
