<svg id="Group_3008" data-name="Group 3008" xmlns="http://www.w3.org/2000/svg" width="30" height="30" viewBox="0 0 30 30">
  <path id="Path_1511" data-name="Path 1511" d="M0,0H30V30H0Z" fill="none"/>
  <path id="Path_1512" data-name="Path 1512" d="M12.289,16.41l4.1,2.983a.834.834,0,0,0,1.283-.933l-1.567-4.817,4.05-2.883a.835.835,0,0,0-.483-1.517H14.706L13.089,4.21a.832.832,0,0,0-1.583,0L9.872,9.243H4.906a.835.835,0,0,0-.483,1.517l4.05,2.883L6.906,18.46a.836.836,0,0,0,1.283.933Z" transform="translate(2.711 2.423)" fill="#5a5a5a"/>
</svg>
