<svg xmlns="http://www.w3.org/2000/svg" width="29.333" height="26.074" viewBox="0 0 29.333 26.074">
  <path id="Path_5408" data-name="Path 5408" d="M9.349,10.556,10.638,2h-6.7l-2.8,7.333A2.571,2.571,0,0,0,1,10.148c0,1.8,1.874,3.259,4.19,3.259C7.325,13.407,9.09,12.162,9.349,10.556Zm6.318,2.852c2.314,0,4.19-1.46,4.19-3.259,0-.067,0-.134-.008-.2L19.019,2h-6.7l-.831,7.944c0,.067-.007.134-.007.2C11.477,11.947,13.353,13.407,15.667,13.407Zm8.148,1.7v6.444H7.519V15.122a6.857,6.857,0,0,1-2.329.4,6.718,6.718,0,0,1-.931-.08V25.793a2.286,2.286,0,0,0,2.278,2.281H24.793a2.289,2.289,0,0,0,2.281-2.281V15.448a7,7,0,0,1-.931.08A6.771,6.771,0,0,1,23.815,15.112ZM30.2,9.333,27.4,2H20.7l1.287,8.543c.251,1.613,2.016,2.865,4.16,2.865,2.314,0,4.19-1.46,4.19-3.259A2.617,2.617,0,0,0,30.2,9.333Z" transform="translate(-1 -2)" fill="#0bab0d"/>
</svg>
