<svg xmlns="http://www.w3.org/2000/svg" width="15.539" height="21.937" viewBox="0 0 15.539 21.937">
  <g id="Group_10244" data-name="Group 10244" transform="translate(-7)">
    <path id="Path_5396" data-name="Path 5396" d="M7.457,3.2A.457.457,0,0,1,7,2.742V1.371A1.373,1.373,0,0,1,8.371,0H9.742a.457.457,0,0,1,0,.914H8.371a.458.458,0,0,0-.457.457V2.742A.457.457,0,0,1,7.457,3.2Zm2.285,4.57H8.371A1.373,1.373,0,0,1,7,6.4V5.027a.457.457,0,0,1,.914,0V6.4a.458.458,0,0,0,.457.457H9.742a.457.457,0,0,1,0,.914ZM22.082,3.2a.457.457,0,0,1-.457-.457V1.371a.458.458,0,0,0-.457-.457H19.8A.457.457,0,0,1,19.8,0h1.371a1.373,1.373,0,0,1,1.371,1.371V2.742A.457.457,0,0,1,22.082,3.2Zm-.914,4.57H19.8a.457.457,0,0,1,0-.914h1.371a.458.458,0,0,0,.457-.457V5.027a.457.457,0,1,1,.914,0V6.4A1.373,1.373,0,0,1,21.168,7.769ZM14.769,9.6a3.66,3.66,0,0,1-3.656-3.656V3.656a3.616,3.616,0,0,1,.152-1.046.457.457,0,0,1,.437-.325h.781A2.253,2.253,0,0,0,14.1,1.616a2.233,2.233,0,0,0,.481-.7,2.024,2.024,0,0,0,.151-.5.456.456,0,0,1,.505-.377,3.576,3.576,0,0,1,2.12,1.036,3.646,3.646,0,0,1,1.071,2.586V5.941A3.66,3.66,0,0,1,14.769,9.6Zm-2.7-6.4a2.749,2.749,0,0,0-.037.457V5.941a2.742,2.742,0,0,0,5.484,0V3.656a2.692,2.692,0,0,0-.113-.782,2.723,2.723,0,0,0-.69-1.157,2.684,2.684,0,0,0-1.19-.7,2.757,2.757,0,0,1-.1.266,3.154,3.154,0,0,1-.672.979,3.156,3.156,0,0,1-2.258.935Z" fill="#5a5a5a"/>
    <path id="Path_5397" data-name="Path 5397" d="M20.311.04a2.554,2.554,0,0,0-.5-.04,3.631,3.631,0,0,0-3.5,2.612.457.457,0,0,0,.438.587h.781a3.158,3.158,0,0,0,2.258-.935,3.148,3.148,0,0,0,.672-.979,2.917,2.917,0,0,0,.217-.719A.457.457,0,0,0,20.311.04Z" transform="translate(-5.045)" fill="#5a5a5a"/>
    <path id="Path_5398" data-name="Path 5398" d="M25.876,2.652a3.633,3.633,0,0,0-.92-1.543A3.577,3.577,0,0,0,22.837.073a.456.456,0,0,0-.505.377,2.006,2.006,0,0,1-.149.5.457.457,0,0,0,0,.371,3.153,3.153,0,0,0,.67.981,3.163,3.163,0,0,0,2.263.939h.324a.457.457,0,0,0,.439-.585ZM21.457,4.608A.453.453,0,0,1,21,4.151a.455.455,0,0,1,.037-.174.412.412,0,0,1,.247-.247.456.456,0,0,1,.5.1.463.463,0,0,1,0,.649l-.069.055a.346.346,0,0,1-.082.041.291.291,0,0,1-.082.027A.687.687,0,0,1,21.457,4.608Zm1.828,0a.459.459,0,0,1-.324-.781.459.459,0,0,1,.649.649A.481.481,0,0,1,23.285,4.608Zm-.914,1.828a.457.457,0,0,1-.457-.457V5.522a.457.457,0,0,1,.914,0v.457A.457.457,0,0,1,22.371,6.436Z" transform="translate(-7.602 -0.038)" fill="#5a5a5a"/>
    <path id="Path_5399" data-name="Path 5399" d="M16.855,14.828h-.914a1.373,1.373,0,0,1-1.371-1.371.457.457,0,1,1,.914,0,.458.458,0,0,0,.457.457h.914a.458.458,0,0,0,.457-.457.457.457,0,1,1,.914,0A1.373,1.373,0,0,1,16.855,14.828Zm-4.57.914h-.914A1.373,1.373,0,0,0,10,17.113v6.855a.457.457,0,0,0,.457.457h1.828a.457.457,0,0,0,.457-.457V16.2A.457.457,0,0,0,12.285,15.742Zm9.14,0h-.914a.457.457,0,0,0-.457.457v7.769a.457.457,0,0,0,.457.457h1.828a.457.457,0,0,0,.457-.457V17.113A1.373,1.373,0,0,0,21.425,15.742Z" transform="translate(-1.629 -7.059)" fill="#5a5a5a"/>
    <path id="Path_5400" data-name="Path 5400" d="M22.683,19H19.941a.457.457,0,0,1,.457.457v1.828a1.828,1.828,0,1,1-3.656,0V19.457A.457.457,0,0,1,17.2,19H14.457a.457.457,0,0,0-.457.457V31.8a.457.457,0,0,0,.457.457h8.226a.457.457,0,0,0,.457-.457V19.457A.457.457,0,0,0,22.683,19ZM18.895,30.293a.463.463,0,1,1,.133-.324A.481.481,0,0,1,18.895,30.293Zm0-1.828a.463.463,0,1,1,.133-.324A.481.481,0,0,1,18.895,28.465Zm0-1.828a.463.463,0,1,1,.133-.324A.481.481,0,0,1,18.895,26.637Zm0-1.828a.457.457,0,0,1-.781-.324.455.455,0,0,1,.037-.174.528.528,0,0,1,.1-.151.472.472,0,0,1,.151-.1.465.465,0,0,1,.5.1.528.528,0,0,1,.1.151.455.455,0,0,1,.037.174A.481.481,0,0,1,18.895,24.809Z" transform="translate(-3.801 -10.317)" fill="#5a5a5a"/>
  </g>
</svg>
