<svg xmlns="http://www.w3.org/2000/svg" width="20" height="19.5" viewBox="0 0 20 19.5">
  <g id="Group_10315" data-name="Group 10315" transform="translate(-0.75 -1)">
    <path id="Path_5467" data-name="Path 5467" d="M18.7,1H7V20.5H18.7ZM15.521,12.492l-3.595,1.8a2,2,0,0,1-.877.208A1.95,1.95,0,0,1,9.1,12.55V8.956A1.95,1.95,0,0,1,11.92,7.207l3.594,1.8a1.95,1.95,0,0,1,0,3.484Z" transform="translate(-2.1)" fill="#0bab0d"/>
    <path id="Path_5468" data-name="Path 5468" d="M16.76,14.1l-3.595-1.8a.617.617,0,0,0-.65.033.65.65,0,0,0-.306.552v3.588a.659.659,0,0,0,.956.585l3.595-1.8a.65.65,0,0,0,0-1.157Z" transform="translate(-3.923 -3.927)" fill="#0bab0d"/>
    <rect id="Rectangle_3061" data-name="Rectangle 3061" width="3" height="5" transform="translate(0.75 4.75)" fill="#0bab0d"/>
    <rect id="Rectangle_3062" data-name="Rectangle 3062" width="3" height="5" transform="translate(17.75 11.75)" fill="#0bab0d"/>
    <rect id="Rectangle_3063" data-name="Rectangle 3063" width="3" height="5" transform="translate(0.75 11.75)" fill="#0bab0d"/>
    <path id="Path_5469" data-name="Path 5469" d="M17.935,3.635H20.47A3.25,3.25,0,0,0,17.935,1.1Zm-14.3,14.3H1.1A3.25,3.25,0,0,0,3.635,20.47Zm0-14.3V1.1A3.25,3.25,0,0,0,1.1,3.635Zm14.3,14.3V20.47a3.25,3.25,0,0,0,2.535-2.535Z" transform="translate(-0.035 -0.035)" fill="#0bab0d"/>
    <rect id="Rectangle_3064" data-name="Rectangle 3064" width="3" height="5" transform="translate(17.75 4.75)" fill="#0bab0d"/>
  </g>
</svg>
