<svg xmlns="http://www.w3.org/2000/svg" width="28.571" height="16" viewBox="0 0 28.571 16">
  <g id="Group_3204" data-name="Group 3204" transform="translate(-2 -7.5)">
    <path id="Path_1613" data-name="Path 1613" d="M19.143,23.5H4.286A2.286,2.286,0,0,1,2,21.214V9.786A2.286,2.286,0,0,1,4.286,7.5H19.143a2.286,2.286,0,0,1,2.286,2.286V21.214A2.286,2.286,0,0,1,19.143,23.5Z" transform="translate(0 0)" fill="#0bab0d"/>
    <path id="Path_1614" data-name="Path 1614" d="M21,11.947V18.8l5.08,3.387a1.143,1.143,0,0,0,1.777-.952V9.512a1.143,1.143,0,0,0-1.777-.951Z" transform="translate(2.714 0.124)" fill="#0bab0d"/>
  </g>
</svg>
