<svg xmlns="http://www.w3.org/2000/svg" width="20" height="20" viewBox="0 0 20 20">
  <path id="Path_5363" data-name="Path 5363" d="M20.333,13.667a.666.666,0,0,0-.667.667v5.333H15.041a.667.667,0,0,0,0,1.333h5.292A.666.666,0,0,0,21,20.333v-6A.666.666,0,0,0,20.333,13.667ZM1.667,21H6.959a.667.667,0,0,0,0-1.333H2.333V14.333a.667.667,0,0,0-1.333,0v6A.667.667,0,0,0,1.667,21ZM20.333,1h-6a.667.667,0,0,0,0,1.333h5.333V7.667a.667.667,0,0,0,1.333,0v-6A.666.666,0,0,0,20.333,1ZM1.667,8.333a.666.666,0,0,0,.667-.667V2.333H7.667A.667.667,0,0,0,7.667,1h-6A.666.666,0,0,0,1,1.667v6A.667.667,0,0,0,1.667,8.333Z" transform="translate(-1 -1)" fill="#fff"/>
</svg>
